<?xml version="1.0" standalone="no"?>
<!DOCTYPE svg PUBLIC "-//W3C//DTD SVG 20010904//EN"
 "http://www.w3.org/TR/2001/REC-SVG-20010904/DTD/svg10.dtd">
<svg version="1.0" xmlns="http://www.w3.org/2000/svg"
 width="609.000000pt" height="609.000000pt" viewBox="0 0 609.000000 609.000000"
 preserveAspectRatio="xMidYMid meet">
<metadata>
Created by potrace 1.14, written by Peter Selinger 2001-2017
</metadata>
<g transform="translate(0.000000,609.000000) scale(0.100000,-0.100000)"
fill="#000000" stroke="none">
<path d="M2828 6075 c-2 -1 -43 -6 -92 -9 -49 -4 -92 -9 -95 -10 -3 -2 -28 -6
-56 -10 -27 -3 -61 -8 -75 -11 -14 -3 -50 -9 -80 -15 -88 -15 -270 -63 -370
-98 -360 -125 -706 -326 -1005 -581 -257 -220 -443 -437 -647 -756 -75 -117
-186 -350 -232 -485 -25 -75 -102 -368 -112 -425 -2 -16 -9 -55 -14 -85 -15
-85 -18 -111 -24 -170 -4 -30 -9 -71 -12 -90 -9 -63 -11 -373 -2 -475 38 -453
148 -843 337 -1190 58 -107 168 -278 182 -283 5 -2 9 -9 9 -16 0 -7 11 -25 25
-40 14 -15 25 -30 25 -33 0 -7 63 -87 72 -91 5 -2 8 -10 8 -17 0 -8 11 -23 26
-34 14 -11 25 -23 25 -28 1 -7 15 -26 123 -152 104 -124 387 -375 471 -418 17
-9 32 -19 35 -23 22 -30 257 -160 430 -238 196 -88 543 -191 730 -218 30 -4
57 -8 60 -9 92 -21 346 -41 507 -39 119 1 301 12 313 19 3 2 28 6 55 10 85 11
246 44 325 66 41 12 80 22 85 23 8 2 132 40 265 83 8 2 16 4 17 4 4 -1 146 61
228 99 142 65 232 111 251 128 10 10 39 28 64 41 180 91 314 187 483 350 91
87 329 371 312 371 -3 0 4 10 15 22 78 84 335 556 400 735 86 238 168 596 186
813 13 156 8 414 -11 545 -19 132 -78 444 -97 509 -6 23 -12 46 -14 51 -1 6
-20 60 -42 120 -160 441 -387 788 -781 1189 -215 218 -355 329 -579 458 -468
270 -1003 414 -1539 415 -100 1 -183 0 -185 -2z"/>
</g>
</svg>
